<?xml version="1.0" encoding="UTF-8"?>
<svg class="Logo-module__logo PrimaryHeaderDefault-module__primary-header__main-logo" aria-label="The Spectator" viewBox="0 0 247 56" xmlns="http://www.w3.org/2000/svg">
<path d="m244.41 54.047h2.5867v1.1084h-9.2381l-1.4253-2.1112-10.822-15.729-2.5867-3.8002v-0.2639h2.1116c7.3904-0.21112 10.611-3.114 10.611-9.7116 0-5.0141-2.9034-7.3893-4.9094-8.0226-0.89741-0.31668-2.9034-0.42224-4.3287-0.42224h-3.6952v38.952h4.3815v1.1084h-14.834v-1.1084h4.3815v-38.952h-4.4343v-1.1084h15.942c4.3287 0.31668 8.7102 0.47502 11.93 3.9057 1.435 1.5925 2.2254 3.6623 2.2171 5.8058 0 1.7945-0.4751 5.1197-4.3287 7.6004-1.7948 1.2139-4.4871 2.1112-8.1295 2.4807l14.57 20.268zm-45.926-39.638c-4.3287 0-9.502 1.4251-9.502 20.109 0 18.526 5.2261 20.215 9.502 20.215s9.3964-1.4251 9.3964-20.109c0.052789-18.526-5.1733-20.215-9.3964-20.215zm0-1.2139c9.2381 0 16.153 8.9199 16.153 21.429s-6.9153 21.323-16.153 21.323c-9.3436 0-16.206-8.9199-16.206-21.429s6.9153-21.323 16.206-21.323zm-49.516 24.068-5.7012-18.315-6.0179 18.315h11.719zm-12.141 1.1612-5.1205 15.623h5.8068v1.1084h-22.858v-1.1084h4.9094v-38.952c-1.2679-0.046208-2.5374-0.010949-3.8008 0.10556-2.2171 0.31668-2.6922 1.9001-3.009 2.6918-0.4751 1.4779-0.89741 2.9029-1.2141 4.328-0.31673 1.4251-0.68626 3.114-1.1086 4.6975h-1.1086v-12.931h26.922v12.931h-1.1086c-0.42231-1.5834-0.68626-3.2196-1.1086-4.6975-0.42231-1.3195-0.68626-2.7974-1.1086-4.328-0.28942-1.4683-1.5174-2.5669-3.009-2.6918-1.4577-0.11051-2.9201-0.14574-4.3815-0.10556v38.952h4.8038l13.144-40.06h3.9064l12.828 40.06h5.1205v-38.952c-1.4613-0.041235-2.9238-0.0059997-4.3815 0.10556-2.2171 0.31668-2.6922 1.9001-3.009 2.6918-0.4751 1.4779-0.89741 2.9029-1.2141 4.328-0.31673 1.4251-0.68626 3.114-1.1086 4.6975h-1.1086v-12.931h27.609v12.931h-1.003c-0.42231-1.5834-0.79183-3.2196-1.2141-4.6975-0.42231-1.3195-0.68626-2.7974-1.1086-4.328-0.28942-1.4683-1.5174-2.5669-3.009-2.6918-1.4754-0.11016-2.9553-0.14539-4.4343-0.10556v38.952h5.1205v1.1084h-27.556v-1.1084h5.2261l-4.8038-15.623h-12.511zm-30.142-11.506c-0.79183-4.0113-1.9004-9.0254-3.6952-10.926-1.003-1.1084-2.4283-1.9001-4.9094-1.9001-7.496 0-10.927 6.3864-10.927 20.637 0 2.2168-0.10558 10.82 2.7978 15.729 0.68809 1.2394 1.6892 2.2767 2.9034 3.0085 1.3899 0.83199 2.973 1.2868 4.5926 1.3195 1.1757-0.020533 2.3381-0.25297 3.4313-0.68615 2.4811-1.1084 3.8008-3.4307 4.6982-6.3336 0.83779-2.4348 1.4388-4.9447 1.7948-7.4948h1.1086v13.037c-0.77079 0.47771-1.5836 0.88404-2.4283 1.2139-2.4951 0.95499-5.1411 1.4555-7.8128 1.4779-3.9064 0-6.2291-1.0028-7.496-1.689-4.012-2.1112-10.135-7.6004-10.135-19.318 0-13.406 8.2351-22.115 17.737-22.115 3.1782 0.0013221 6.3408 0.44543 9.3964 1.3195v12.72h-1.0558zm-28.031 13.301h1.1086v14.937h-28.876v-1.1084h3.9064v-38.952h-3.9064v-1.1084h28.453v12.931h-1.1086c-0.68626-2.3223-1.3197-4.6975-2.1116-6.9142-0.68626-2.0057-1.2141-2.9029-1.7948-3.4835-1.003-0.89727-2.4283-1.2139-5.1205-1.4251h-8.3406v17.945h3.8008c1.3197-0.10556 2.006-0.31668 2.9034-1.1084 1.4781-1.3195 1.9004-3.4307 2.7978-7.0198h1.1086v17.206h-1.1086c-0.42231-1.3195-0.58068-2.4807-1.003-3.8002-0.2557-1.1028-0.76141-2.1321-1.4781-3.0085-1.003-1.1084-2.1116-1.2139-3.6952-1.2139h-3.3257v19.951h8.499c1.0593 0.048167 2.1178-0.11326 3.1145-0.47502 2.4283-1.1084 3.4313-4.4336 4.1175-6.3864 0.80893-2.2843 1.4962-4.6099 2.0588-6.967zm-42.073-25.123h-2.4283v18.843h4.9094c4.5926 0 7.496-3.4307 7.496-8.6032 0-6.9142-3.1673-10.239-9.9771-10.239zm2.4811 19.951h-4.9094v19.054h5.0149v1.1084h-14.939v-1.1084h3.9064v-39.005h-3.1145v-1.1084h12.247c9.9243 0 15.52 3.8002 15.52 10.609 0 6.1225-5.5956 10.451-13.725 10.451zm-14.834 13.934c-2.5867 4.803-7.496 6.967-12.828 6.967-4.3287 0-7.3904-1.2139-11.244-3.114v-13.09h1.1086c0.58068 2.4279 1.1086 4.6975 1.7948 7.2309 0.42843 1.7414 1.1419 3.3999 2.1116 4.9086 0.89741 1.3195 2.9034 2.9029 6.7042 2.9029 1.4781 0 5.7012-0.31668 8.2351-4.2224 0.86091-1.4158 1.3173-3.0405 1.3197-4.6975 0.014232-1.7315-0.54233-3.4195-1.5837-4.803-0.44235-0.66853-0.97531-1.2725-1.5837-1.7945-2.2171-1.689-4.8038-2.5862-9.7132-4.4863-2.4283-0.89727-3.2201-1.689-4.3287-2.4279-1.4781-0.89727-4.2231-3.4307-4.2231-8.1282-0.025252-2.0452 0.52339-4.0566 1.5837-5.8058 2.006-3.4307 7.0209-5.5947 11.825-5.5947 4.012 0 6.2291 0.42224 9.9243 1.3195v13.142h-1.1086c-0.89741-4.1169-1.7948-9.131-3.5896-11.031-1.003-1.0028-2.4811-2.2168-5.8068-2.2168-3.2201 0-6.0179 0.89727-7.8128 3.4835-0.91013 1.2212-1.4092 2.6996-1.4253 4.2224 0.013054 1.2139 0.36006 2.4009 1.003 3.4307 1.5837 2.4807 4.2231 3.2196 6.9153 4.4336 1.003 0.42224 2.1116 0.79171 3.009 1.2139 2.7978 1.1084 5.3845 2.0057 7.8128 4.1169 1.3197 1.1084 3.4313 3.5891 3.4313 8.2337-0.02378 2.0319-0.54968 4.0263-1.5309 5.8058zm103.36-37.844h1.1086v-10.714h-1.1086v-0.42224h8.0239v3.5891h-0.42231c-1.003-2.7974-1.003-3.2196-1.7948-3.2196h-3.009v4.9086h1.1086c0.79183 0 1.1086-0.21112 1.5837-2.0057h0.42231v4.4336h-0.42231c-0.58068-1.7945-0.79183-2.0057-1.5837-2.0057h-1.1086v5.3836h3.2201c0.58068 0 0.79183-0.31668 1.9004-3.6946h0.42231v4.1169h-8.3406v-0.36946zm-10.769 0h1.1086v-10.714h-1.1086v-0.42224h3.9064v0.42224h-1.1086v4.9086h4.3815v-4.9086h-1.1086v-0.42224h3.9064v0.42224h-1.1086v10.714h1.1086v0.42224h-3.9064v-0.42224h1.1086v-5.4364h-4.3815v5.3836h1.1086v0.42224h-3.9064v-0.36946zm-1.2669-7.5476c-1.003-3.0085-1.1086-3.2196-2.006-3.2196h-0.68626v10.714h1.5837v0.42224h-4.9094v-0.42224h1.5837v-10.662h-0.68626c-0.89741 0-1.003 0.21112-2.006 3.2196h-0.42231v-3.6418h7.9183v3.5891h-0.36952z"/>
</svg>
